<?xml version="1.0" encoding="UTF-8" standalone="no"?>
<!-- Created with Inkscape (http://www.inkscape.org/) -->

<svg
   width="69.332466mm"
   height="48.530968mm"
   viewBox="0 0 69.332466 48.530968"
   version="1.1"
   id="svg5"
   inkscape:version="1.1 (c4e8f9e, 2021-05-24)"
   sodipodi:docname="upload.svg"
   xmlns:inkscape="http://www.inkscape.org/namespaces/inkscape"
   xmlns:sodipodi="http://sodipodi.sourceforge.net/DTD/sodipodi-0.dtd"
   xmlns="http://www.w3.org/2000/svg"
   xmlns:svg="http://www.w3.org/2000/svg">
  <sodipodi:namedview
     id="namedview7"
     pagecolor="#505050"
     bordercolor="#eeeeee"
     borderopacity="1"
     inkscape:pageshadow="0"
     inkscape:pageopacity="0"
     inkscape:pagecheckerboard="0"
     inkscape:document-units="mm"
     showgrid="false"
     showborder="false"
     showguides="false"
     fit-margin-top="0"
     fit-margin-left="0"
     fit-margin-right="0"
     fit-margin-bottom="0"
     inkscape:zoom="2"
     inkscape:cx="155.75"
     inkscape:cy="106.75"
     inkscape:window-width="1600"
     inkscape:window-height="847"
     inkscape:window-x="1920"
     inkscape:window-y="119"
     inkscape:window-maximized="1"
     inkscape:current-layer="layer1" />
  <defs
     id="defs2">
    <clipPath
       clipPathUnits="userSpaceOnUse"
       id="clipPath7355">
      <path
         id="path7357"
         style="fill:#ff0000;fill-opacity:1;fill-rule:nonzero;stroke:none;stroke-width:0.264583"
         d="M 438.81352,40.351025 V 72.890642 H 572.68856 V 40.351025 Z m 8.74676,6.002218 v 0 c 0.26379,0.0035 0.57658,0.171389 0.84336,0.567407 0.0225,0.03327 0.0415,0.06627 0.062,0.09922 0.0285,0.01328 0.0573,0.06005 0.0863,0.150378 0.24993,0.164751 0.40807,0.349444 0.48991,0.529683 0.0257,0.03258 0.0498,0.06614 0.0754,0.0987 0.0422,0.07559 0.089,0.14886 0.1266,0.226859 0.0729,0.151217 0.13351,0.402897 0.1478,0.546737 0.008,0.07638 -0.004,0.154562 -0.0212,0.229445 -0.0569,0.252941 -0.0889,0.275963 -0.20775,0.476972 -0.0869,0.09658 -0.15568,0.212638 -0.26045,0.289388 -0.36886,0.270174 -0.84326,0.266062 -1.26659,0.160713 -0.21545,-0.05362 -0.4308,-0.113686 -0.63664,-0.196887 -0.0106,-0.0043 -0.0212,-0.0092 -0.0315,-0.01394 -0.0358,-0.0031 -0.0717,-0.0073 -0.10747,-0.01497 -0.18063,-0.03864 -0.19323,-0.05368 -0.35245,-0.125574 -0.0745,-0.04628 -0.15103,-0.08875 -0.22323,-0.138493 -0.0401,-0.02761 -0.0756,-0.06141 -0.11266,-0.09302 -0.23162,-0.197811 -0.46006,-0.40654 -0.63098,-0.660943 -0.0565,-0.111707 -0.11726,-0.221395 -0.16896,-0.33538 -0.0127,-0.02819 -0.0159,-0.05997 -0.0238,-0.08992 -0.0103,-0.03961 -0.0206,-0.07926 -0.031,-0.118856 -0.0584,-0.222787 -0.0823,-0.389763 0.005,-0.605132 0.0151,-0.02917 0.0299,-0.05816 0.045,-0.08733 0,-0.01183 0.0111,-0.02127 0.0164,-0.03204 -0.006,0.01072 -0.0111,0.02133 -0.0164,0.03204 0,2.64e-4 -3e-5,7.94e-4 0,0.0011 0.018,0.153593 0.0269,0.309827 0.0491,0.463021 -0.0183,-0.258413 -0.0534,-0.520425 0.0341,-0.758611 0.0533,-0.145095 0.26977,-0.155551 0.41651,-0.20412 0.0793,-0.02622 0.16661,-0.01561 0.25011,-0.01654 0.10551,-0.0011 0.21651,0.02331 0.32557,0.02376 0.0309,-0.01926 0.0619,-0.03813 0.093,-0.05684 0.0421,-0.02532 0.0936,-0.02993 0.14057,-0.04444 0.26162,-0.08087 0.1437,-0.04934 0.43252,-0.108522 0.008,2.9e-5 0.0153,1.6e-5 0.0233,0 0.10469,-0.122968 0.25403,-0.196072 0.42788,-0.193786 z m 0.99218,0.817004 c -0.003,-0.0021 -0.006,-0.0041 -0.009,-0.0062 0.008,0.01669 0.0151,0.03361 0.0217,0.05064 -0.004,-0.01455 -0.008,-0.03165 -0.0124,-0.04444 z M 447.87344,46.654 c -0.0135,-0.006 -0.0317,-0.0019 -0.0501,0.0026 0.0311,0.01548 0.0621,0.0312 0.0925,0.04806 -0.0103,-0.02487 -0.0241,-0.04248 -0.0424,-0.05064 z m -2.39263,1.340485 c 0.0275,0.05367 0.0983,0.08 0.1478,0.117825 0.0193,0.01482 0.0844,0.04848 0.0651,0.03359 -0.069,-0.05316 -0.14121,-0.101893 -0.21291,-0.151413 z" />
    </clipPath>
    <clipPath
       clipPathUnits="userSpaceOnUse"
       id="clipPath7355-1">
      <path
         id="path7357-4"
         style="fill:#ff0000;fill-opacity:1;fill-rule:nonzero;stroke:none;stroke-width:0.264583"
         d="M 438.81352,40.351025 V 72.890642 H 572.68856 V 40.351025 Z m 8.74676,6.002218 v 0 c 0.26379,0.0035 0.57658,0.171389 0.84336,0.567407 0.0225,0.03327 0.0415,0.06627 0.062,0.09922 0.0285,0.01328 0.0573,0.06005 0.0863,0.150378 0.24993,0.164751 0.40807,0.349444 0.48991,0.529683 0.0257,0.03258 0.0498,0.06614 0.0754,0.0987 0.0422,0.07559 0.089,0.14886 0.1266,0.226859 0.0729,0.151217 0.13351,0.402897 0.1478,0.546737 0.008,0.07638 -0.004,0.154562 -0.0212,0.229445 -0.0569,0.252941 -0.0889,0.275963 -0.20775,0.476972 -0.0869,0.09658 -0.15568,0.212638 -0.26045,0.289388 -0.36886,0.270174 -0.84326,0.266062 -1.26659,0.160713 -0.21545,-0.05362 -0.4308,-0.113686 -0.63664,-0.196887 -0.0106,-0.0043 -0.0212,-0.0092 -0.0315,-0.01394 -0.0358,-0.0031 -0.0717,-0.0073 -0.10747,-0.01497 -0.18063,-0.03864 -0.19323,-0.05368 -0.35245,-0.125574 -0.0745,-0.04628 -0.15103,-0.08875 -0.22323,-0.138493 -0.0401,-0.02761 -0.0756,-0.06141 -0.11266,-0.09302 -0.23162,-0.197811 -0.46006,-0.40654 -0.63098,-0.660943 -0.0565,-0.111707 -0.11726,-0.221395 -0.16896,-0.33538 -0.0127,-0.02819 -0.0159,-0.05997 -0.0238,-0.08992 -0.0103,-0.03961 -0.0206,-0.07926 -0.031,-0.118856 -0.0584,-0.222787 -0.0823,-0.389763 0.005,-0.605132 0.0151,-0.02917 0.0299,-0.05816 0.045,-0.08733 0,-0.01183 0.0111,-0.02127 0.0164,-0.03204 -0.006,0.01072 -0.0111,0.02133 -0.0164,0.03204 0,2.64e-4 -3e-5,7.94e-4 0,0.0011 0.018,0.153593 0.0269,0.309827 0.0491,0.463021 -0.0183,-0.258413 -0.0534,-0.520425 0.0341,-0.758611 0.0533,-0.145095 0.26977,-0.155551 0.41651,-0.20412 0.0793,-0.02622 0.16661,-0.01561 0.25011,-0.01654 0.10551,-0.0011 0.21651,0.02331 0.32557,0.02376 0.0309,-0.01926 0.0619,-0.03813 0.093,-0.05684 0.0421,-0.02532 0.0936,-0.02993 0.14057,-0.04444 0.26162,-0.08087 0.1437,-0.04934 0.43252,-0.108522 0.008,2.9e-5 0.0153,1.6e-5 0.0233,0 0.10469,-0.122968 0.25403,-0.196072 0.42788,-0.193786 z m 0.99218,0.817004 c -0.003,-0.0021 -0.006,-0.0041 -0.009,-0.0062 0.008,0.01669 0.0151,0.03361 0.0217,0.05064 -0.004,-0.01455 -0.008,-0.03165 -0.0124,-0.04444 z M 447.87344,46.654 c -0.0135,-0.006 -0.0317,-0.0019 -0.0501,0.0026 0.0311,0.01548 0.0621,0.0312 0.0925,0.04806 -0.0103,-0.02487 -0.0241,-0.04248 -0.0424,-0.05064 z m -2.39263,1.340485 c 0.0275,0.05367 0.0983,0.08 0.1478,0.117825 0.0193,0.01482 0.0844,0.04848 0.0651,0.03359 -0.069,-0.05316 -0.14121,-0.101893 -0.21291,-0.151413 z" />
    </clipPath>
    <clipPath
       clipPathUnits="userSpaceOnUse"
       id="clipPath7355-4">
      <path
         id="path7357-6"
         style="fill:#ff0000;fill-opacity:1;fill-rule:nonzero;stroke:none;stroke-width:0.264583"
         d="M 438.81352,40.351025 V 72.890642 H 572.68856 V 40.351025 Z m 8.74676,6.002218 v 0 c 0.26379,0.0035 0.57658,0.171389 0.84336,0.567407 0.0225,0.03327 0.0415,0.06627 0.062,0.09922 0.0285,0.01328 0.0573,0.06005 0.0863,0.150378 0.24993,0.164751 0.40807,0.349444 0.48991,0.529683 0.0257,0.03258 0.0498,0.06614 0.0754,0.0987 0.0422,0.07559 0.089,0.14886 0.1266,0.226859 0.0729,0.151217 0.13351,0.402897 0.1478,0.546737 0.008,0.07638 -0.004,0.154562 -0.0212,0.229445 -0.0569,0.252941 -0.0889,0.275963 -0.20775,0.476972 -0.0869,0.09658 -0.15568,0.212638 -0.26045,0.289388 -0.36886,0.270174 -0.84326,0.266062 -1.26659,0.160713 -0.21545,-0.05362 -0.4308,-0.113686 -0.63664,-0.196887 -0.0106,-0.0043 -0.0212,-0.0092 -0.0315,-0.01394 -0.0358,-0.0031 -0.0717,-0.0073 -0.10747,-0.01497 -0.18063,-0.03864 -0.19323,-0.05368 -0.35245,-0.125574 -0.0745,-0.04628 -0.15103,-0.08875 -0.22323,-0.138493 -0.0401,-0.02761 -0.0756,-0.06141 -0.11266,-0.09302 -0.23162,-0.197811 -0.46006,-0.40654 -0.63098,-0.660943 -0.0565,-0.111707 -0.11726,-0.221395 -0.16896,-0.33538 -0.0127,-0.02819 -0.0159,-0.05997 -0.0238,-0.08992 -0.0103,-0.03961 -0.0206,-0.07926 -0.031,-0.118856 -0.0584,-0.222787 -0.0823,-0.389763 0.005,-0.605132 0.0151,-0.02917 0.0299,-0.05816 0.045,-0.08733 0,-0.01183 0.0111,-0.02127 0.0164,-0.03204 -0.006,0.01072 -0.0111,0.02133 -0.0164,0.03204 0,2.64e-4 -3e-5,7.94e-4 0,0.0011 0.018,0.153593 0.0269,0.309827 0.0491,0.463021 -0.0183,-0.258413 -0.0534,-0.520425 0.0341,-0.758611 0.0533,-0.145095 0.26977,-0.155551 0.41651,-0.20412 0.0793,-0.02622 0.16661,-0.01561 0.25011,-0.01654 0.10551,-0.0011 0.21651,0.02331 0.32557,0.02376 0.0309,-0.01926 0.0619,-0.03813 0.093,-0.05684 0.0421,-0.02532 0.0936,-0.02993 0.14057,-0.04444 0.26162,-0.08087 0.1437,-0.04934 0.43252,-0.108522 0.008,2.9e-5 0.0153,1.6e-5 0.0233,0 0.10469,-0.122968 0.25403,-0.196072 0.42788,-0.193786 z m 0.99218,0.817004 c -0.003,-0.0021 -0.006,-0.0041 -0.009,-0.0062 0.008,0.01669 0.0151,0.03361 0.0217,0.05064 -0.004,-0.01455 -0.008,-0.03165 -0.0124,-0.04444 z M 447.87344,46.654 c -0.0135,-0.006 -0.0317,-0.0019 -0.0501,0.0026 0.0311,0.01548 0.0621,0.0312 0.0925,0.04806 -0.0103,-0.02487 -0.0241,-0.04248 -0.0424,-0.05064 z m -2.39263,1.340485 c 0.0275,0.05367 0.0983,0.08 0.1478,0.117825 0.0193,0.01482 0.0844,0.04848 0.0651,0.03359 -0.069,-0.05316 -0.14121,-0.101893 -0.21291,-0.151413 z" />
    </clipPath>
  </defs>
  <g
     inkscape:label="Layer 1"
     inkscape:groupmode="layer"
     id="layer1"
     transform="translate(-404.81456,-27.270093)">
    <g
       id="g11922">
      <path
         style="fill:none;stroke:#ffffff;stroke-width:3.965;stroke-linecap:round;stroke-linejoin:round;stroke-miterlimit:4;stroke-dasharray:none;stroke-opacity:1"
         d="m 440.79583,56.223958 c 0,0 1.5875,14.684374 17.4625,14.684374 h 32.82107 c 0,0 15.33109,-1.192938 15.08125,-14.684374"
         id="path42"
         clip-path="url(#clipPath7355)"
         sodipodi:nodetypes="cscc"
         transform="translate(-33.998958,2.9104167)" />
      <g
         id="g11077"
         style="fill:none;stroke:#ffffff;stroke-width:3.965;stroke-linecap:round;stroke-linejoin:round;stroke-miterlimit:4;stroke-dasharray:none;stroke-opacity:1"
         transform="translate(-31.795565,6.6145833)">
        <path
           style="fill:none;stroke:#ffffff;stroke-width:3.965;stroke-linecap:round;stroke-linejoin:round;stroke-miterlimit:4;stroke-dasharray:none;stroke-opacity:1"
           d="m 471.27636,53.320269 v -30.68254 l -11.5995,11.599497"
           id="path10991" />
        <path
           style="fill:none;stroke:#ffffff;stroke-width:3.965;stroke-linecap:round;stroke-linejoin:round;stroke-miterlimit:4;stroke-dasharray:none;stroke-opacity:1"
           d="m 471.27636,53.639649 v -31.00192 l 11.5995,11.918877"
           id="path10993"
           sodipodi:nodetypes="ccc" />
      </g>
    </g>
  </g>
</svg>
